<?xml version="1.0" standalone="no"?><!DOCTYPE svg PUBLIC "-//W3C//DTD SVG 1.1//EN" "http://www.w3.org/Graphics/SVG/1.1/DTD/svg11.dtd"><svg t="1645083448376" class="icon" viewBox="0 0 1024 1024" version="1.1" xmlns="http://www.w3.org/2000/svg" p-id="1634" xmlns:xlink="http://www.w3.org/1999/xlink" width="200" height="200"><defs><style type="text/css"></style></defs><path d="M695.466667 384a27.306667 27.306667 0 0 1 26.112 18.090667l42.88 125.909333h53.845333c6.954667 0 12.8 4.949333 13.610667 11.52l0.085333 1.578667v29.226666a13.141333 13.141333 0 0 1-8.917333 12.245334l-1.493334 0.426666-35.541333 8.448 18.517333 54.357334v301.098666c0 7.253333-6.144 13.098667-13.696 13.098667H736a13.525333 13.525333 0 0 1-13.653333-11.52l-0.085334-1.578667v-39.253333H173.738667v39.253333a12.8 12.8 0 0 1-4.010667 9.258667 14.08 14.08 0 0 1-9.685333 3.84H105.130667a13.397333 13.397333 0 0 1-13.696-13.098667v-301.098666l18.517333-54.357334-35.541333-8.405333a13.226667 13.226667 0 0 1-10.410667-12.714667v-29.226666c0-7.253333 6.144-13.098667 13.696-13.098667h53.845333l42.88-125.909333A27.306667 27.306667 0 0 1 200.490667 384h495.018666z m-370.901334 314.197333H173.696v52.352h123.434667l27.434666-52.352z m397.738667 0h-150.869333l27.434666 52.352h123.434667v-52.352z m-60.373333-261.845333H235.093333L187.434667 593.493333h521.130666l-46.634666-157.098666z m106.453333-176.213333c32.981333 0 59.733333 27.733333 59.733333 61.909333 0 34.218667-26.752 61.952-59.733333 61.952-33.024 0-59.733333-27.733333-59.733333-61.952 0-34.176 26.709333-61.909333 59.733333-61.909333z m-0.426667-136.277334c65.365333 0 123.093333 34.048 157.525334 85.973334l-59.050667 42.112a118.186667 118.186667 0 0 0-98.517333-53.76A118.186667 118.186667 0 0 0 669.568 251.733333l-59.093333-42.112c34.517333-51.797333 92.16-85.76 157.44-85.76z m0-123.861333c106.24 0 200.021333 55.338667 256.042667 139.733333l-59.093333 42.069334c-43.093333-64.896-115.2-107.52-196.992-107.52-81.621333 0-153.728 42.496-196.821334 107.306666L512 139.52C568.021333 55.253333 661.76 0 767.914667 0z" p-id="1635" fill="#1296db"></path></svg>